<?xml version="1.0" encoding="iso-8859-1"?>
<!-- Generator: Adobe Illustrator 16.0.0, SVG Export Plug-In . SVG Version: 6.00 Build 0)  -->
<!DOCTYPE svg PUBLIC "-//W3C//DTD SVG 1.1//EN" "http://www.w3.org/Graphics/SVG/1.1/DTD/svg11.dtd">
<svg version="1.1" id="Capa_1" xmlns="http://www.w3.org/2000/svg" xmlns:xlink="http://www.w3.org/1999/xlink" x="0px" y="0px"
	 width="477.289px" height="477.289px" viewBox="0 0 477.289 477.289" style="enable-background:new 0 0 477.289 477.289;"
	 xml:space="preserve">
<g>
	<g id="Layer_2_33_">
		<g>
			<path d="M137.569,146.216c3.119,40.979,19.416,23.318,22.777,41.27c5.59,29.849,32.016,51.439,48.467,58.894
				c18.898,8.563,38.888,8.8,61.729,1.63c22.844-7.173,39.785-25.2,46.397-60.523c3.365-17.951,19.662-0.29,22.779-41.27
				c0-16.329-8.896-20.393-8.896-20.393s4.519-24.169,6.289-42.768C339.311,59.875,323.582,0,239.705,0c-0.363,0-1.756,0-2.124,0
				c-83.877,0-99.604,59.875-97.41,83.056c1.773,18.599,6.295,42.768,6.295,42.768S137.569,129.887,137.569,146.216z"/>
			<path d="M369.536,317.186c-18.191-6.562-49.861-25.473-55.287-28.391c-1.408-0.816-3.035-1.294-4.779-1.294
				c-3.807,0-7.084,2.235-8.611,5.465c-14.999,25.113-42.809,83.863-62.213,85.216c-19.408-1.353-47.217-60.103-62.217-85.216
				c-1.527-3.229-4.803-5.465-8.609-5.465c-1.744,0-3.373,0.478-4.781,1.294c-5.424,2.918-37.096,21.829-55.287,28.391
				c-61.068,22.02-88.533,44.478-88.533,59.789c0,15.295,0,100.314,0,100.314h219.427h219.426c0,0,0-85.02,0-100.314
				C458.071,361.663,430.604,339.205,369.536,317.186z M237.143,452.488c-7.438,0-13.463-6.021-13.463-13.461
				c0-7.432,6.025-13.461,13.463-13.461c7.438,0,13.459,6.029,13.459,13.461C250.602,446.465,244.58,452.488,237.143,452.488z"/>
			<path d="M202.909,311.436c2.814,0,5.402-0.946,7.486-2.523c7.012-4.611,11.735-14.217,16.03-14.385l12.22,0.06l12.22-0.06
				c4.295,0.168,9.02,9.773,16.028,14.385c2.085,1.577,4.672,2.523,7.487,2.523c6.746,0,12.226-5.377,12.416-12.078h0.018v-26.002
				h-0.031c-0.336-6.567-5.75-11.795-12.401-11.795c-0.679,0-1.337,0.068-1.985,0.174c-0.167,0.025-0.338,0.045-0.501,0.076
				c-0.046,0.01-0.09,0.023-0.136,0.033c-0.337,0.07-0.667,0.154-0.99,0.254c-0.143,0.043-0.283,0.098-0.424,0.146
				c-0.182,0.062-0.363,0.125-0.538,0.197c-1.239,0.49-2.382,1.166-3.388,2.007c-5.813,4.54-9.518,12.954-16.865,13.503
				c-0.699,0.054-1.414,0.057-2.134,0.043c-0.644-0.008-5.031-0.012-8.774-0.01c-3.743-0.002-8.133,0.002-8.774,0.01
				c-0.722,0.014-1.437,0.011-2.135-0.043c-7.348-0.549-11.052-8.963-16.866-13.503c-1.005-0.841-2.148-1.517-3.385-2.007
				c-0.178-0.072-0.359-0.135-0.54-0.197c-0.141-0.049-0.28-0.104-0.424-0.146c-0.322-0.1-0.653-0.184-0.99-0.254
				c-0.046-0.01-0.089-0.023-0.136-0.033c-0.163-0.031-0.333-0.051-0.501-0.076c-0.647-0.104-1.309-0.174-1.985-0.174
				c-6.65,0-12.066,5.228-12.401,11.795h-0.032v26.002h0.018C190.683,306.059,196.161,311.436,202.909,311.436z"/>
		</g>
	</g>
</g>
<g>
</g>
<g>
</g>
<g>
</g>
<g>
</g>
<g>
</g>
<g>
</g>
<g>
</g>
<g>
</g>
<g>
</g>
<g>
</g>
<g>
</g>
<g>
</g>
<g>
</g>
<g>
</g>
<g>
</g>
</svg>
